<?xml version="1.0" standalone="no"?>
<!DOCTYPE svg PUBLIC "-//W3C//DTD SVG 20010904//EN"
 "http://www.w3.org/TR/2001/REC-SVG-20010904/DTD/svg10.dtd">
<svg version="1.0" xmlns="http://www.w3.org/2000/svg"
 width="1280.000000pt" height="755.000000pt" viewBox="0 0 1280.000000 755.000000"
 preserveAspectRatio="xMidYMid meet">
<g transform="translate(0.000000,755.000000) scale(0.100000,-0.100000)"
fill="#000000" stroke="none">
<path d="M6179 7546 c-2 -3 -78 -10 -169 -16 -1237 -83 -2450 -506 -3650
-1273 -1011 -646 -1999 -1587 -2270 -2160 -102 -217 -111 -336 -37 -487 100
-202 705 -856 1197 -1294 1520 -1352 3160 -2149 4690 -2281 96 -8 222 -19 280
-25 137 -13 230 -13 286 1 31 8 56 8 86 1 42 -11 90 -8 448 24 1545 138 3155
959 4644 2369 452 428 947 994 1073 1229 60 111 58 175 -9 341 -81 199 -332
511 -737 916 -960 958 -2160 1749 -3341 2200 -615 234 -1267 386 -1850 429
-80 6 -186 15 -237 20 -91 10 -396 14 -404 6z m596 -696 c1079 -92 2217 -525
3322 -1263 675 -451 1296 -985 1764 -1517 91 -103 199 -242 199 -256 0 -25
-288 -356 -521 -599 -1146 -1193 -2482 -2038 -3740 -2364 -1133 -295 -2274
-207 -3449 267 -1021 411 -2081 1129 -3007 2036 -275 269 -623 652 -623 686 0
22 100 169 205 300 440 548 1212 1196 1980 1662 1178 714 2400 1083 3520 1062
127 -2 284 -9 350 -14z"/>
<path d="M6305 5914 c-16 -2 -70 -9 -120 -15 -336 -41 -701 -190 -988 -402
-105 -77 -289 -257 -377 -367 -233 -292 -374 -618 -424 -979 -21 -147 -21
-435 0 -582 60 -433 257 -830 564 -1140 311 -313 730 -527 1181 -604 153 -26
410 -31 569 -10 397 50 772 207 1084 453 215 168 466 475 521 637 12 34 18 87
20 165 2 106 5 124 43 230 138 393 137 834 -4 1243 -176 509 -546 923 -1035
1157 -226 107 -511 182 -766 200 -76 5 -160 11 -188 14 -27 2 -63 2 -80 0z"/>
</g>
</svg>
